<svg xmlns="http://www.w3.org/2000/svg" viewBox="0 0 432.54 430.33"><defs><style>.cls-1{fill:#E6E5ED;fill-rule:evenodd;}</style></defs><title>Asset 1</title><g id="Layer_2" data-name="Layer 2"><g id="Layer_1-2" data-name="Layer 1"><path class="cls-1" d="M335.22,402.26H40.76a12.71,12.71,0,0,1-12.7-12.69V95.11a12.71,12.71,0,0,1,12.7-12.69V54.35A40.81,40.81,0,0,0,0,95.11V389.57a40.81,40.81,0,0,0,40.76,40.76H335.22A40.81,40.81,0,0,0,376,389.57H347.91A12.7,12.7,0,0,1,335.22,402.26Z"/><path class="cls-1" d="M391.78,0H97.32A40.81,40.81,0,0,0,56.56,40.76V335.22A40.81,40.81,0,0,0,97.32,376H391.78a40.81,40.81,0,0,0,40.76-40.76V40.76A40.81,40.81,0,0,0,391.78,0Zm12.69,335.22a12.7,12.7,0,0,1-12.69,12.69H97.32a12.71,12.71,0,0,1-12.7-12.69V40.76a12.72,12.72,0,0,1,12.7-12.7H391.78a12.71,12.71,0,0,1,12.69,12.7Z"/><path class="cls-1" d="M361.29,264.93q-12.68-22.8-25.45-45.55l-34-61c-.77-1.37-1.52-2.75-2.38-4.06-6.51-9.93-16.46-10.22-23.23-.46-4.16,6-7.87,12.35-11.76,18.55C255.94,186,247.6,199.57,239,213c-7.58,11.78-21.11,15.68-31.92,8.67-12.12-7.87-27.93-3.87-36.14,5.9C159,241.69,147,255.7,135.12,269.83a24,24,0,0,0-3.89,6.3c-2.14,5.3,0,9.75,5.53,11.31a32,32,0,0,0,8.51,1.07q50.67.11,101.34,0t101.34,0a33.4,33.4,0,0,0,7-.67c8.3-1.78,12-8.1,9.45-16.18A37.3,37.3,0,0,0,361.29,264.93Z"/><path class="cls-1" d="M163.78,174.38a38.14,38.14,0,1,0-38.33-38.06A38,38,0,0,0,163.78,174.38Z"/></g></g></svg>