<svg xmlns="http://www.w3.org/2000/svg" viewBox="0 0 578.54 364.85"><defs><style>.cls-1{fill:#f2f2f2;}.cls-2{fill:#e6e6e6;}.cls-3{fill:#ccc;}</style></defs><title>Asset 1</title><g id="Layer_2" data-name="Layer 2"><g id="icons"><g id="_4" data-name="4"><path class="cls-1" d="M187.69,102.28a40.77,40.77,0,1,0-40.77-40.76A40.81,40.81,0,0,0,187.69,102.28Z"/><path class="cls-2" d="M576.87,349.31,347.44,4.46A10,10,0,0,0,339.12,0h0a10,10,0,0,0-8.32,4.51L187.86,222.22l91.6,142.63H568.54a10,10,0,0,0,8.33-15.54ZM373.45,104.74a41.23,41.23,0,0,0-7.53,4.69c-7.34,5.91-24,9.15-35.54,5.79a21.22,21.22,0,0,1-6-2.84L296.79,93.8l3.8-6.89,38.58-58.77L386,98.48Z"/><path class="cls-3" d="M132.72,175.05a10,10,0,0,0-8.33-4.47h0a10,10,0,0,0-8.34,4.51L1.64,349.36A10,10,0,0,0,10,364.85H255.69l-89.88-140Zm-31.91,59.67,23.63-36,25.05,37.75C122,255.19,115.28,245.16,100.81,234.72Z"/></g></g></g></svg>