<?xml version="1.0" encoding="utf-8"?>
<!-- Generator: Adobe Illustrator 23.0.3, SVG Export Plug-In . SVG Version: 6.00 Build 0)  -->
<svg version="1.1" id="Layer_1" xmlns="http://www.w3.org/2000/svg" xmlns:xlink="http://www.w3.org/1999/xlink" x="0px" y="0px"
	 viewBox="0 0 19 19" style="enable-background:new 0 0 19 19;" xml:space="preserve">
<style type="text/css">
	.st0{fill:#00D1B2;}
</style>
<title>Asset 1</title>
<g>
	<g id="Layer_1-2">
		<path class="st0" d="M17,8.8h1.6c0.2,0,0.3-0.1,0.3-0.3c0,0,0,0,0,0V3.6C18.5,5.4,17.9,7.1,17,8.8z"/>
		<path class="st0" d="M10.5,0c-0.2,0-0.3,0.2-0.3,0.3c0,0,0,0,0,0V2c1.7-0.8,3.4-1.5,5.2-2H10.5z"/>
		<path class="st0" d="M9.3,14.5l0.3,0.3c0.1,0.1,0.2,0.1,0.2,0.1c0,0,0.1,0,0.1,0c1.5-0.7,2.8-1.7,4-2.9c3.9-3.9,5-11.3,5-11.6
			c0-0.1,0-0.2-0.1-0.3C18.8,0,18.7,0,18.6,0C18.3,0.1,10.9,1.1,7,5C5.8,6.2,4.8,7.5,4.1,9C4,9.1,4.1,9.3,4.2,9.4l0.3,0.3l-0.8,0.8
			c-0.4,0.4-1.1,0.4-1.5,0c-0.4-0.4-0.4-1.1,0-1.4c0.1-0.1,0.2-0.3,0-0.5S2,8.4,1.8,8.5c0,0,0,0,0,0c-0.7,0.7-0.7,1.7,0,2.4
			c0.7,0.7,1.7,0.7,2.4,0L5,10.2l1,1l-3,2.9c-0.5,0.5-1.4,0.5-1.9,0c-0.5-0.5-0.5-1.4,0-1.9c0.1-0.1,0.1-0.3,0-0.5
			c-0.1-0.1-0.3-0.1-0.5,0C0.2,12.1,0,12.6,0,13.1c0,0.5,0.2,1.1,0.6,1.4C1,14.9,1.5,15.2,2,15.2c0.5,0,1.1-0.2,1.4-0.6l3-2.9l1,1
			l-3,2.9c-0.8,0.8-0.8,2-0.1,2.8c0,0,0,0,0.1,0.1C4.8,18.8,5.3,19,5.9,19c0.5,0,1.1-0.2,1.4-0.6c0.1-0.1,0.1-0.3,0-0.5
			c-0.1-0.1-0.3-0.1-0.5,0c-0.6,0.5-1.4,0.4-1.9-0.2c-0.4-0.5-0.4-1.2,0-1.7l2.9-2.9l1,1L8,14.8c-0.3,0.3-0.5,0.8-0.5,1.2
			c0,0.9,0.7,1.7,1.7,1.7c0.5,0,0.9-0.2,1.2-0.5c0.1-0.1,0.1-0.4,0-0.5c-0.1-0.1-0.3-0.1-0.5,0c-0.4,0.4-1,0.4-1.4,0c0,0,0,0,0,0
			c-0.2-0.2-0.3-0.4-0.3-0.7c0-0.3,0.1-0.5,0.3-0.7L9.3,14.5z M7.8,10.2c-0.6,0-1-0.4-1-1s0.4-1,1-1s1,0.4,1,1S8.4,10.2,7.8,10.2z
			 M9.8,10.2c0.6,0,1,0.4,1,1s-0.4,1-1,1s-1-0.4-1-1C8.8,10.6,9.2,10.2,9.8,10.2C9.8,10.2,9.8,10.2,9.8,10.2L9.8,10.2z"/>
		<circle class="st0" cx="9.8" cy="11.2" r="0.3"/>
		<circle class="st0" cx="7.8" cy="9.2" r="0.3"/>
	</g>
</g>
</svg>
